<svg width="500" height="196" viewBox="0 0 500 196" fill="none" xmlns="http://www.w3.org/2000/svg">
<path d="M77.3 70.8003H69.5V124.8H77.3V70.8003Z" fill="#0B0B1E"/>
<path d="M85.3994 70.8003H125.599V77.1003H109.399V124.8H101.599V77.1003H85.3994V70.8003Z" fill="#0B0B1E"/>
<path d="M75.8 156.3C43.4 156.3 17 130.2 17 97.8C17 65.4 43.4 39 75.8 39H109.1C125.6 39 140.6 45.9 151.1 56.7H75.8C53.3 56.7 35 75 35 97.8C35 120.6 53.3 138.6 75.8 138.6H151.1C140.3 149.7 125.6 156.3 109.1 156.3H75.8Z" fill="#3A74D2"/>
<path d="M304.699 75.5999L292.099 105.9L279.199 75.5999H265.399L284.899 116.7H298.999L318.499 75.5999H304.699Z" fill="#0B0B1E"/>
<path d="M416.9 75.5999V102.3L394.4 75.5999H381.5V116.7H393.2V88.7999L416.9 116.7H428.6V75.5999H416.9Z" fill="#0B0B1E"/>
<path d="M439.399 75.2996V84.5996H455.299V116.7H467.299V84.5996H482.899V75.2996H439.399Z" fill="#0B0B1E"/>
<path d="M212 125.1H227C229.1 120.6 233 117.6 237.8 117.6C242.6 117.6 246.8 120.6 248.6 125.1H263.6C262.1 119.7 258.8 114.9 253.7 111.6C257.9 107.4 260.9 101.7 260.9 95.0996C260.9 82.4996 250.4 72.2996 237.8 72.2996C225.2 72.2996 214.7 82.4996 214.7 95.0996C214.7 101.4 217.4 107.4 221.9 111.6C216.8 114.9 213.2 119.7 212 125.1ZM237.8 83.6996C244.1 83.6996 249.2 88.7996 249.2 95.3996C249.2 102 244.1 107.1 237.8 107.1C231.5 107.1 226.4 102 226.4 95.3996C226.4 88.7996 231.5 83.6996 237.8 83.6996Z" fill="#0B0B1E"/>
<path d="M188 108C181.1 108 175.7 102.9 175.7 96C175.7 89.1 181.4 83.4 188 83.4H208.4C204.2 76.8 196.7 72 188 72C174.8 72 164 82.8 164 95.7C164 108.6 174.8 119.4 188 119.4C196.7 119.4 204.2 114.9 208.4 108L188 108Z" fill="#0B0B1E"/>
<path d="M370.4 100.8C370.7 99.2996 371 97.7996 371 95.9996C371 82.7996 360.2 72.2996 347 72.2996C333.8 72.2996 323 83.0996 323 95.9996C323 108.9 333.8 119.7 347 119.7C355.7 119.7 363.2 115.2 367.4 108.3H347C342.2 108.3 338 105 336.2 100.5H370.4V100.8ZM347 83.6996C351.8 83.6996 356 86.9996 357.8 91.4996H336.5C338 86.9996 342.2 83.6996 347 83.6996Z" fill="#0B0B1E"/>
</svg>
