<svg width="154" height="38" viewBox="0 0 154 38" fill="none" xmlns="http://www.w3.org/2000/svg">
    <path d="M46.398 31.546C49.064 31.546 50.513 29.662 50.89 28.793H50.948C50.948 28.793 50.861 29.198 50.89 29.807L50.977 31.14H54.889V22.011C54.889 18.389 52.658 16.244 48.195 16.244C45.645 16.244 43.703 16.853 42.892 17.23V21.113C43.848 20.504 45.674 19.867 47.499 19.867C49.412 19.867 50.6 20.504 50.6 22.243V22.591C45.384 21.866 41.79 23.605 41.79 27.141C41.79 30.097 43.906 31.546 46.398 31.546ZM47.528 28.242C46.514 28.242 45.877 27.633 45.877 26.706C45.877 25.344 47.239 24.33 50.484 24.851C50.484 26.706 49.209 28.242 47.528 28.242ZM64.134 31.546C66.25 31.546 68.162 30.3 68.829 28.851H68.887C68.887 28.851 68.8 29.227 68.829 29.807L68.916 31.14H72.857V10.274H68.539V17.172C68.539 17.836 68.597 18.208 68.619 18.322L68.626 18.359H68.568C67.785 17.229 66.134 16.244 64.018 16.244C60.396 16.244 57.382 19.114 57.382 23.895C57.382 28.648 60.396 31.546 64.134 31.546ZM64.916 27.894C62.916 27.894 61.468 26.271 61.468 23.895C61.468 21.49 62.917 19.895 64.916 19.895C66.656 19.895 68.394 21.229 68.394 23.895C68.394 26.561 66.655 27.895 64.916 27.895V27.894ZM80.29 31.14V24.793C80.29 22.417 80.986 20.186 83.42 20.186C84.869 20.186 85.275 21.316 85.275 22.678V31.14H89.593V24.793C89.593 22.446 90.23 20.186 92.693 20.186C94.085 20.186 94.577 21.286 94.577 22.706V31.14H98.924V22.07C98.924 18.215 97.128 16.244 93.911 16.244C91.911 16.244 90.172 17.461 89.071 19.142C88.491 17.49 87.158 16.592 85.507 16.36C85.0349 16.2975 84.556 16.3077 84.087 16.39C82.203 16.592 80.58 17.81 79.971 19.316H79.913C79.943 19.171 80.058 18.824 80.029 18.302L79.913 16.65H75.943V31.14H80.29ZM104.836 14.824C106.286 14.824 107.242 13.897 107.242 12.506C107.242 11.056 106.285 10.158 104.836 10.158C103.358 10.158 102.431 11.057 102.431 12.506C102.431 13.896 103.358 14.824 104.836 14.824ZM107.01 31.14V16.65H102.663V31.14H107.01ZM115.414 31.14V23.924C115.414 21.75 116.776 20.186 118.804 20.186C120.37 20.186 120.775 21.374 120.775 22.794V31.14H125.122V22.07C125.122 18.244 123.354 16.244 120.08 16.244C117.616 16.244 115.704 17.984 115.095 19.316H115.037C115.067 19.171 115.182 18.824 115.153 18.302L115.037 16.65H111.067V31.14H115.414ZM130.223 31.546C134.164 31.546 136.337 29.662 136.337 25.199V10.274H131.875V25.402C131.875 26.967 131.035 27.749 129.498 27.749C128.658 27.749 127.788 27.489 127.325 27.228V30.995C127.846 31.255 128.919 31.546 130.223 31.546ZM146.133 31.546C151.059 31.546 153.899 29.286 153.899 25.518C153.899 22.011 151.639 20.475 147.987 19.055C145.147 17.983 144.017 17.143 144.017 15.925C144.017 14.592 145.408 13.752 147.553 13.752C149.465 13.752 151.436 14.302 152.653 15.027V10.912C151.349 10.332 149.292 9.86902 147.205 9.86902C142.713 9.86902 139.641 12.245 139.641 15.954C139.641 19.577 141.786 21.113 145.437 22.446C148.307 23.489 149.552 24.214 149.552 25.605C149.552 26.619 148.625 27.228 147.032 27.46C146.48 27.575 145.842 27.604 145.176 27.575C143.293 27.46 141.38 26.822 139.931 26.069V30.358C141.438 31.024 143.756 31.546 146.133 31.546Z" fill="#0B151E"/>
    <g clip-path="url(#clip0_76_14)">
        <path opacity="0.2" d="M0 9.5V28.5L16.5 38L33 28.5V9.5L16.5 0L0 9.5Z" fill="#4BCFFF"/>
        <path opacity="0.8" d="M0 9.5L33 28.5L16.5 38L0 28.5V9.5Z" fill="#4BCFFF"/>
        <path opacity="0.8" d="M16.5 19L0 28.5L16.5 38L33 28.5L16.5 19Z" fill="#4BCFFF"/>
        <path opacity="0.3" d="M16.5 19L33 9.5L16.5 0L0 9.5L16.5 19Z" fill="#4BCFFF"/>
        <path opacity="0.2" d="M16.5 0V19L0 9.5L16.5 0ZM16.5 38V19L0 28.5L16.5 38Z" fill="#4BCFFF"/>
        <path opacity="0.3" d="M33 9.5L16.5 38V19L33 9.5ZM0 9.5L16.5 38L0 28.5V9.5Z" fill="white"/>
    </g>
    <defs>
        <clipPath id="clip0_76_14">
            <rect width="33" height="38" fill="white"/>
        </clipPath>
    </defs>
</svg>
